<svg viewBox="0.86732768804 0 33.469995999999995 28.23186909090909" xmlns:xlink="http://www.w3.org/1999/xlink" xmlns="http://www.w3.org/2000/svg" style="max-height: 500px" width="33.469995999999995" height="28.23186909090909">
  <defs>
    <linearGradient gradientUnits="objectBoundingBox" y2="0.725" x2="1.275" x1="0.5" id="linear-gradient">
      <stop stop-color="#fe8464" offset="0"/>
      <stop stop-color="#fe6e9a" offset="1"/>
    </linearGradient>
  </defs>
  <g transform="translate(-372.804 -44.291)" data-name="Group 2" id="Group_2">
    <text font-weight="700" font-family="Helvetica-Bold, Helvetica" font-size="24" fill="#2e2e2e" transform="translate(409 68)" id="BASIC"><tspan y="0" x="0">BASIC</tspan></text>
    <path fill="url(#linear-gradient)" transform="translate(382.43 45.489) rotate(30)" d="M9.126,19.253h0a8.835,8.835,0,0,1-6.453-2.82A9.835,9.835,0,0,1,0,9.626,9.835,9.835,0,0,1,2.673,2.82,8.835,8.835,0,0,1,9.126,0V19.252Z" data-name="Subtraction 1" id="Subtraction_1"/>
    <path fill="#2e2e2e" transform="translate(395.769 74.857) rotate(-150)" d="M13.694,0h0A13.694,13.694,0,0,0,4.011,23.377a13.6,13.6,0,0,0,9.683,4.011V0Z" data-name="Subtraction 2" id="Subtraction_2"/>
  </g>
</svg>